<svg width="134.000000" height="66.000000" viewBox="0 0 134 66" fill="none" xmlns="http://www.w3.org/2000/svg" xmlns:xlink="http://www.w3.org/1999/xlink">
	<desc>
			Created with Pixso.
	</desc>
	<defs/>
	<path d="M41.8 18.19L41.8 21.03L44.12 21.03L44.15 30.81Q44.15 32.57 44.5 33.76Q44.82 34.79 45.49 35.5Q46.88 36.97 49.81 37L51.08 37L50.41 34.01L49.92 34.01Q49.53 34.01 49.14 33.94Q48.35 33.83 47.86 33.38Q47.1 32.68 47.1 31.16L47.1 21.07L49.35 21.07L49.35 18.19L47.1 18.19L47.1 12.1L44.12 12.1L44.12 18.19L41.8 18.19ZM32.16 19.52L32.16 22.41L34.48 22.41L34.48 37L37.44 37L37.44 22.41L39.83 22.41L39.83 19.52L37.44 19.56L37.44 17.48Q37.46 16.1 38.15 15.5Q38.64 15.07 39.48 15.02L40.14 15.02L40.81 12.17L39.51 12.17Q38.27 12.19 37.28 12.7Q36.44 13.13 35.78 13.9Q34.98 14.9 34.67 16.03Q34.48 16.73 34.48 17.48L34.48 19.52L32.16 19.52ZM1.44 12.39L1.44 37L14.66 37L14.66 33.97L4.5 33.97L4.5 12.39L1.44 12.39ZM52.66 12.39L52.66 37L55.72 37L55.72 26.1L58.88 26.1L58.88 23.11L55.72 23.11L55.72 12.39L52.66 12.39ZM60.64 23.11L60.64 26.1L63.77 26.1L63.77 37L66.86 37L66.86 12.39L63.77 12.39L63.77 23.11L60.64 23.11ZM102.28 20.71Q101.63 21.85 101.63 23.35Q101.63 24.06 101.77 24.69Q101.89 25.13 102.09 25.52Q102.88 27.05 105.01 27.89Q105.75 28.14 107.4 28.52Q108.94 28.91 109.65 29.12Q112.15 29.88 112.4 31.1Q112.43 31.23 112.43 31.37Q112.43 31.86 112.27 32.3Q112.08 32.83 111.65 33.27Q111.16 33.77 110.57 34.05Q109.84 34.39 108.94 34.39L108.94 37.17Q110.66 37.17 112.05 36.5Q112.31 36.37 112.57 36.22Q113.73 35.53 114.39 34.5Q115.27 33.15 115.27 31.23Q115.27 30.13 114.85 29.23Q114.8 29.12 114.75 29.01Q114.43 28.44 113.99 28Q112.99 27 111.34 26.66Q107.5 25.75 106.17 25.18Q104.66 24.58 104.45 23.67Q104.41 23.52 104.41 23.35Q104.41 23.18 104.44 23Q104.52 22.45 104.87 21.95Q105.3 21.3 105.9 20.96Q106.53 20.61 107.36 20.61L107.36 17.87Q105.96 17.87 104.55 18.61Q103 19.43 102.28 20.71ZM108.91 17.87L108.91 20.65Q109.44 20.65 110.07 20.89Q111.36 21.37 111.86 22.28Q112.18 22.85 112.18 23.6L114.96 23.14Q114.96 22.89 114.93 22.63Q114.77 21.33 113.8 20.12Q112.95 19.1 111.87 18.54Q110.56 17.87 108.91 17.87ZM16.62 23.11L16.62 31.79Q16.62 32.99 17.5 34.32Q18.37 35.61 19.58 36.28Q20.92 37.03 22.67 37.03L22.67 34.18Q22.04 34.18 21.49 33.97Q21.09 33.81 20.74 33.55Q19.92 32.93 19.66 32.12Q19.54 31.75 19.54 31.33L19.54 23.6Q19.54 23.07 19.79 22.55Q20.13 21.81 20.71 21.39Q21.48 20.82 22.67 20.82L22.67 17.98Q21.12 17.98 19.87 18.58Q18.9 19.05 18.1 19.87Q16.7 21.37 16.63 22.93Q16.62 23.02 16.62 23.11ZM24.18 34.18L24.18 37.03Q25.66 37.01 26.86 36.41Q27.79 35.95 28.54 35.13Q29.9 33.65 30.01 32.08Q30.02 31.93 30.02 31.79L30.02 23.11Q30.02 21.91 29.14 20.61Q28.3 19.35 27.13 18.7Q25.84 17.98 24.15 17.98L24.15 20.82Q24.86 20.82 25.46 21.08Q25.69 21.18 25.91 21.32Q26.57 21.77 26.87 22.4Q27.14 22.94 27.14 23.6L27.14 31.41Q27.14 31.93 26.85 32.5Q26.45 33.35 25.77 33.77Q25.11 34.18 24.18 34.18ZM69.6 23.11L69.6 31.79Q69.6 32.99 70.48 34.32Q71.35 35.61 72.56 36.28Q73.9 37.03 75.65 37.03L75.65 34.18Q75.02 34.18 74.47 33.97Q74.07 33.81 73.72 33.55Q72.9 32.93 72.64 32.12Q72.52 31.75 72.52 31.33L72.52 23.6Q72.52 23.07 72.77 22.55Q73.11 21.81 73.69 21.39Q74.46 20.82 75.65 20.82L75.65 17.98Q74.1 17.98 72.85 18.58Q71.88 19.05 71.08 19.87Q69.68 21.37 69.61 22.93Q69.6 23.02 69.6 23.11ZM77.16 34.18L77.16 37.03Q78.64 37.01 79.84 36.41Q80.77 35.95 81.52 35.13Q82.88 33.65 82.99 32.08Q83 31.93 83 31.79L83 23.11Q83 21.91 82.12 20.61Q81.28 19.35 80.11 18.7Q78.82 17.98 77.13 17.98L77.13 20.82Q77.84 20.82 78.44 21.08Q78.67 21.18 78.89 21.32Q79.55 21.77 79.86 22.4Q80.12 22.94 80.12 23.6L80.12 31.41Q80.12 31.93 79.83 32.5Q79.43 33.35 78.75 33.77Q78.09 34.18 77.16 34.18ZM117.35 23.07L117.35 31.79Q117.35 33.02 118.33 34.39Q119.23 35.68 120.47 36.33Q121.74 37 123.36 37L123.36 34.25Q123.09 34.25 122.83 34.21Q122.1 34.09 121.43 33.62Q120.42 32.87 120.31 32Q120.3 31.9 120.3 31.79L120.3 28.63L130.99 28.63L130.99 23.04Q130.98 22.65 130.9 22.28Q130.62 20.89 129.37 19.7Q128.22 18.65 126.88 18.24Q126 17.98 125.05 17.98L125.05 20.72Q125.21 20.72 125.38 20.73Q125.98 20.79 126.56 21.07Q127.53 21.51 127.91 22.26Q128.17 22.75 128.17 23.39L128.17 25.78L120.3 25.78L120.3 23.39Q120.3 22.86 120.69 22.23Q121.2 21.43 121.94 21.06Q122.55 20.75 123.32 20.75L123.32 17.98Q122.04 17.99 120.94 18.46Q119.82 18.93 118.89 19.87Q117.39 21.45 117.35 23.07L117.35 23.07ZM85.67 18.01L85.67 31.93Q85.67 33.2 86.58 34.53Q87.39 35.7 88.5 36.35Q89.9 37.17 91.79 37.17L91.79 34.22Q91.2 34.22 90.66 34.04Q90.28 33.91 89.92 33.69Q89.04 33.1 88.77 32.3Q88.66 31.96 88.66 31.58L88.66 18.01L85.67 18.01ZM93.33 34.22L93.33 37.17Q94.84 37.15 96.07 36.56Q97.08 36.07 97.91 35.2Q99.38 33.63 99.42 32.02Q99.42 31.97 99.42 31.93L99.42 18.01L96.43 18.01L96.43 31.58Q96.43 32.14 96.11 32.71Q95.74 33.34 95.2 33.71Q94.44 34.22 93.33 34.22ZM104.23 31.48L101.46 32Q101.46 32.27 101.49 32.53Q101.62 33.66 102.34 34.71Q102.92 35.57 103.72 36.13Q105.21 37.17 107.43 37.17L107.43 34.39Q106.69 34.36 105.89 33.97Q104.78 33.36 104.42 32.45Q104.23 32 104.23 31.48ZM125.05 34.22L125.05 37Q125.94 37 126.78 36.77Q127.48 36.58 128.14 36.22Q129.35 35.56 130.09 34.56Q130.73 33.69 131.02 32.57L128.53 31.65Q128.42 32 128.21 32.39Q127.68 33.3 126.89 33.76Q126.1 34.22 125.05 34.22Z" fill="#FFFFFF" fill-opacity="1.000000" fill-rule="evenodd"/>
	<path d="M48.76 53.16C49.07 52.93 49.24 52.62 49.25 52.24L48.75 52.24C48.72 52.47 48.58 52.66 48.35 52.82C48.13 52.96 47.84 53.03 47.5 53.03C47.32 53.03 47.15 53.01 47 52.97C46.84 52.92 46.71 52.86 46.6 52.79C46.49 52.72 46.4 52.64 46.34 52.54C46.27 52.44 46.24 52.34 46.24 52.24L45.72 52.24C45.74 52.62 45.9 52.93 46.2 53.16C46.52 53.39 46.94 53.5 47.49 53.5Q48.3 53.5 48.76 53.16ZM35.32 62.93C35.82 63.17 36.36 63.29 36.95 63.29Q37.59 63.29 38.17 63.09Q38.36 63.03 38.54 62.94C39.02 62.7 39.44 62.39 39.8 62C40.16 61.6 40.44 61.14 40.64 60.62C40.84 60.1 40.95 59.55 40.95 58.98C40.95 58.45 40.85 57.92 40.66 57.41C40.47 56.89 40.2 56.43 39.84 56.02C39.5 55.61 39.08 55.28 38.58 55.04C38.1 54.78 37.56 54.65 36.96 54.65C36.4 54.65 35.87 54.77 35.38 55.01C34.89 55.24 34.47 55.56 34.11 55.96C33.75 56.36 33.46 56.82 33.26 57.34C33.06 57.86 32.96 58.4 32.96 58.97Q32.96 59.26 32.99 59.54Q33.06 60.06 33.24 60.57C33.44 61.09 33.71 61.55 34.06 61.96C34.41 62.36 34.83 62.68 35.32 62.93ZM69.02 62.93C69.51 63.17 70.06 63.29 70.65 63.29Q71.29 63.29 71.87 63.09Q72.05 63.03 72.23 62.94C72.72 62.7 73.14 62.39 73.49 62C73.85 61.6 74.13 61.14 74.33 60.62C74.54 60.1 74.65 59.55 74.65 58.98Q74.65 58.71 74.61 58.43Q74.55 57.92 74.36 57.41C74.17 56.89 73.89 56.43 73.54 56.02C73.2 55.61 72.78 55.28 72.28 55.04C71.79 54.78 71.25 54.65 70.66 54.65Q70.06 54.65 69.51 54.83Q69.29 54.91 69.08 55.01C68.59 55.24 68.17 55.56 67.81 55.96C67.45 56.36 67.16 56.82 66.95 57.34C66.75 57.86 66.65 58.4 66.65 58.97Q66.65 59.26 66.69 59.54Q66.75 60.06 66.94 60.57C67.13 61.09 67.41 61.55 67.76 61.96C68.11 62.36 68.53 62.68 69.02 62.93ZM125.87 57.39C125.69 57.89 125.6 58.4 125.6 58.91Q125.6 59.1 125.62 59.29Q125.67 59.91 125.89 60.52C126.09 61.04 126.37 61.51 126.72 61.92Q126.9 62.13 127.1 62.31Q127.5 62.67 127.98 62.92C128.47 63.18 129 63.3 129.59 63.3C129.91 63.3 130.25 63.26 130.58 63.17C130.93 63.08 131.25 62.96 131.55 62.79C131.86 62.62 132.13 62.42 132.38 62.18C132.63 61.93 132.82 61.64 132.96 61.32L132.26 60.96Q132.06 61.38 131.76 61.68C131.56 61.88 131.34 62.04 131.1 62.18C130.87 62.3 130.62 62.4 130.37 62.46Q129.99 62.55 129.63 62.55Q129.15 62.55 128.71 62.4Q128.53 62.34 128.36 62.26C127.98 62.06 127.64 61.8 127.35 61.47Q126.93 60.96 126.68 60.32C126.52 59.88 126.44 59.43 126.44 58.96C126.44 58.53 126.51 58.1 126.65 57.69C126.78 57.26 126.98 56.88 127.25 56.55C127.52 56.21 127.85 55.94 128.24 55.73C128.63 55.52 129.09 55.42 129.6 55.42C129.83 55.42 130.07 55.45 130.31 55.5C130.55 55.55 130.78 55.64 131 55.76C131.23 55.88 131.43 56.03 131.63 56.22Q131.93 56.51 132.13 56.93L132.79 56.52C132.53 55.97 132.13 55.52 131.59 55.18C131.05 54.84 130.41 54.66 129.65 54.66C129.01 54.66 128.43 54.79 127.93 55.05C127.43 55.3 127 55.62 126.66 56.02Q126.52 56.18 126.4 56.35Q126.07 56.83 125.87 57.39ZM0.34 54.71L2.89 58.82L0.03 63.23L1 63.23L3.49 59.24L5.2 59.24L5.2 63.23L6.13 63.23L6.13 59.24L7.84 59.24L10.33 63.23L11.3 63.23L8.43 58.82L10.99 54.71L10.02 54.71L7.72 58.49L6.13 58.49L6.13 54.71L5.2 54.71L5.2 58.49L3.61 58.49L1.3 54.71L0.34 54.71ZM19.98 54.71L14.7 61.97L14.7 54.71L13.87 54.71L13.87 63.23L14.64 63.23L19.83 56.09L19.83 63.23L20.67 63.23L20.67 54.71L19.98 54.71ZM25.84 59.86Q26.06 58.66 26.21 56.97L26.33 55.46L29.06 55.46L29.06 63.23L29.89 63.23L29.89 54.71L25.56 54.71L25.38 56.9Q25.28 58.1 25.15 58.97C25.07 59.56 24.98 60.06 24.88 60.47C24.77 60.88 24.66 61.22 24.54 61.48C24.42 61.74 24.29 61.94 24.16 62.09C24.02 62.24 23.88 62.34 23.72 62.39C23.58 62.45 23.43 62.48 23.27 62.49L23.41 63.29C23.83 63.29 24.19 63.18 24.49 62.94C24.8 62.7 25.07 62.33 25.28 61.83Q25.62 61.06 25.84 59.86ZM50.09 54.71L44.81 61.97L44.81 54.71L43.98 54.71L43.98 63.23L44.75 63.23L49.95 56.09L49.95 63.23L50.79 63.23L50.79 54.71L50.09 54.71ZM61.02 58.49L59.73 58.49L59.73 54.71L58.9 54.71L58.9 63.23L59.73 63.23L59.73 59.24L61.09 59.24L64.12 63.23L65.08 63.23L61.78 58.82L64.77 54.71L63.81 54.71L61.02 58.49ZM85.22 56.24L85.22 63.23L86.06 63.23L86.06 54.71L85.21 54.71L81.86 60.54L78.53 54.71L77.67 54.71L77.67 63.23L78.51 63.23L78.51 56.24L81.62 61.65L82.11 61.65L85.22 56.24ZM96.26 54.71L89.68 54.71L89.68 63.23L90.51 63.23L90.51 55.46L95.42 55.46L95.42 63.23L96.26 63.23L96.26 54.71ZM101.41 59.86Q101.64 58.66 101.78 56.97L101.9 55.46L104.64 55.46L104.64 63.23L105.47 63.23L105.47 54.71L101.13 54.71L100.95 56.9C100.89 57.7 100.81 58.39 100.73 58.97C100.65 59.56 100.55 60.06 100.45 60.47C100.35 60.88 100.23 61.22 100.11 61.48C99.99 61.74 99.87 61.94 99.73 62.09C99.59 62.24 99.45 62.34 99.3 62.39C99.15 62.45 99 62.48 98.84 62.49L98.99 63.29C99.4 63.29 99.76 63.18 100.07 62.94C100.38 62.7 100.64 62.33 100.86 61.83C101.08 61.32 101.27 60.66 101.41 59.86ZM114.82 63.23L114.82 62.49L109.94 62.49L109.94 59.24L114.1 59.24L114.1 58.53L109.94 58.53L109.94 55.46L114.71 55.46L114.71 54.71L109.1 54.71L109.1 63.23L114.82 63.23ZM119.98 58.49L118.69 58.49L118.69 54.71L117.86 54.71L117.86 63.23L118.69 63.23L118.69 59.24L120.06 59.24L123.08 63.23L124.04 63.23L120.74 58.82L123.73 54.71L122.77 54.71L119.98 58.49ZM33.88 59.81Q33.8 59.4 33.8 58.97C33.8 58.53 33.87 58.1 34.01 57.68C34.16 57.25 34.38 56.87 34.65 56.54C34.92 56.2 35.25 55.93 35.64 55.73Q35.75 55.68 35.85 55.63Q36.36 55.42 36.95 55.42Q37.51 55.42 37.99 55.61Q38.11 55.66 38.22 55.72C38.61 55.91 38.94 56.17 39.22 56.5C39.5 56.83 39.72 57.21 39.87 57.64C40.03 58.06 40.11 58.51 40.11 58.97Q40.11 59.17 40.09 59.37Q40.04 59.82 39.88 60.27C39.74 60.69 39.53 61.07 39.26 61.41C38.98 61.74 38.65 62.02 38.26 62.22C37.87 62.43 37.43 62.54 36.95 62.54C36.48 62.54 36.05 62.44 35.67 62.25Q35.36 62.09 35.1 61.88Q34.87 61.69 34.67 61.46Q34.56 61.32 34.47 61.18Q34.19 60.79 34.02 60.32Q33.94 60.07 33.88 59.81ZM67.72 60.32C67.57 59.88 67.49 59.44 67.49 58.97Q67.49 58.75 67.52 58.53Q67.57 58.1 67.71 57.68C67.86 57.25 68.07 56.87 68.35 56.54C68.62 56.2 68.95 55.93 69.34 55.73C69.73 55.52 70.17 55.42 70.65 55.42C71.11 55.42 71.54 55.52 71.92 55.72Q72.19 55.85 72.43 56.04Q72.7 56.24 72.92 56.5C73.2 56.83 73.41 57.21 73.57 57.64C73.73 58.06 73.81 58.51 73.81 58.97C73.81 59.41 73.73 59.84 73.58 60.27Q73.41 60.76 73.12 61.18Q73.04 61.3 72.95 61.41Q72.82 61.58 72.66 61.72Q72.35 62.02 71.96 62.22C71.57 62.43 71.13 62.54 70.65 62.54Q69.99 62.54 69.45 62.29Q69.41 62.27 69.37 62.25C68.98 62.05 68.65 61.78 68.37 61.46C68.09 61.12 67.87 60.74 67.72 60.32Z" fill="#FFFFFF" fill-opacity="1.000000" fill-rule="evenodd"/>
</svg>
