<svg width="60.000000" height="60.000000" viewBox="0 0 60 60"  xmlns="http://www.w3.org/2000/svg" xmlns:xlink="http://www.w3.org/1999/xlink">
<g clip-path="url(#clip335_18)">
		<path id="Vector" d="M47.24 6.71C42.23 2.99 36.28 1.03 30.04 1.03C24.34 1.03 18.69 2.67 14.48 5.48L14.48 1.03C14.48 0.46 14.01 0 13.44 0C12.87 0 12.41 0.46 12.41 1.03L12.41 7.54C12.41 7.94 12.64 8.3 13 8.47C13.37 8.64 13.8 8.59 14.1 8.33C18.05 5.06 24.01 3.1 30.04 3.1C35.83 3.1 41.36 4.92 46.01 8.37C46.2 8.51 46.41 8.57 46.63 8.57C46.94 8.57 47.26 8.43 47.46 8.15C47.8 7.69 47.7 7.05 47.24 6.71Z" />
		<path id="Vector" d="M58.96 12.41L52.45 12.41C52.05 12.41 51.69 12.64 51.52 13C51.35 13.37 51.4 13.8 51.66 14.11C54.94 18.05 56.89 24.01 56.89 30.04C56.89 35.83 55.07 41.36 51.62 46.01C51.28 46.47 51.38 47.12 51.84 47.46C52.02 47.6 52.24 47.66 52.45 47.66C52.77 47.66 53.08 47.52 53.28 47.24C57 42.23 58.96 36.28 58.96 30.04C58.96 24.34 57.32 18.69 54.51 14.48L58.96 14.48C59.53 14.48 60 14.01 60 13.44C60 12.87 59.53 12.41 58.96 12.41Z" />
		<path id="Vector" d="M46.99 51.52C46.62 51.35 46.2 51.4 45.89 51.66C41.94 54.94 35.99 56.89 29.96 56.89C24.16 56.89 18.63 55.07 13.98 51.62C13.52 51.28 12.87 51.38 12.53 51.84C12.19 52.3 12.29 52.94 12.75 53.28C17.76 57 23.71 58.96 29.95 58.96C35.65 58.96 41.3 57.32 45.51 54.51L45.51 58.96C45.51 59.53 45.98 60 46.55 60C47.12 60 47.58 59.53 47.58 58.96L47.58 52.45C47.58 52.05 47.35 51.69 46.99 51.52Z" />
		<path id="Vector" d="M8.33 45.89C5.06 41.94 3.1 35.99 3.1 29.95C3.1 24.16 4.92 18.63 8.37 13.98C8.71 13.52 8.61 12.87 8.15 12.53C7.69 12.19 7.05 12.29 6.71 12.75C2.99 17.76 1.03 23.71 1.03 29.95C1.03 35.65 2.67 41.3 5.48 45.51L1.03 45.51C0.46 45.51 0 45.98 0 46.55C0 47.12 0.46 47.58 1.03 47.58L7.54 47.58C7.94 47.58 8.3 47.35 8.47 46.99C8.64 46.62 8.59 46.19 8.33 45.89Z" />
		<path id="Vector" d="M31.03 19.65C31.03 19.08 30.56 18.62 30 18.62C30 18.62 29.99 18.62 29.99 18.62C29.42 18.62 28.96 19.08 28.96 19.65L28.99 30C28.99 30.57 29.45 31.03 30.02 31.03C30.02 31.03 30.02 31.03 30.02 31.03C30.59 31.03 31.06 30.56 31.05 29.99L31.03 19.65Z" />
		<path id="Vector" d="M30.02 28.96L23.79 28.96C23.22 28.96 22.75 29.42 22.75 30C22.75 30.57 23.22 31.03 23.79 31.03L30.02 31.03C30.59 31.03 31.05 30.57 31.05 30C31.05 29.42 30.59 28.96 30.02 28.96Z"/>
		<path id="Vector" d="M30 8.27C18.02 8.27 8.27 18.02 8.27 30C8.27 41.97 18.02 51.72 30 51.72C41.97 51.72 51.72 41.97 51.72 30C51.72 18.02 41.97 8.27 30 8.27ZM30 49.65C19.16 49.65 10.34 40.83 10.34 30C10.34 19.16 19.16 10.34 30 10.34C40.83 10.34 49.65 19.16 49.65 30C49.65 40.83 40.83 49.65 30 49.65Z" />
		<path id="Vector" d="M15.51 28.96L13.44 28.96C12.87 28.96 12.41 29.42 12.41 30C12.41 30.57 12.87 31.03 13.44 31.03L15.51 31.03C16.08 31.03 16.55 30.57 16.55 30C16.55 29.42 16.08 28.96 15.51 28.96Z" />
		<path id="Vector" d="M46.55 28.96L44.48 28.96C43.91 28.96 43.44 29.42 43.44 30C43.44 30.57 43.91 31.03 44.48 31.03L46.55 31.03C47.12 31.03 47.58 30.57 47.58 30C47.58 29.42 47.12 28.96 46.55 28.96Z" />
		<path id="Vector" d="M30 43.44C29.42 43.44 28.96 43.91 28.96 44.48L28.96 46.55C28.96 47.12 29.42 47.58 30 47.58C30.57 47.58 31.03 47.12 31.03 46.55L31.03 44.48C31.03 43.91 30.57 43.44 30 43.44Z" />
		<path id="Vector" d="M30 12.41C29.42 12.41 28.96 12.87 28.96 13.44L28.96 15.51C28.96 16.08 29.42 16.55 30 16.55C30.57 16.55 31.03 16.08 31.03 15.51L31.03 13.44C31.03 12.87 30.57 12.41 30 12.41Z"/>
		<path id="Vector" d="M20.38 39.61C19.98 39.2 19.32 39.2 18.92 39.61L17.56 40.97C17.16 41.37 17.16 42.03 17.56 42.43C17.76 42.63 18.03 42.73 18.29 42.73C18.56 42.73 18.82 42.63 19.02 42.43L20.38 41.07C20.79 40.67 20.79 40.01 20.38 39.61Z" />
		<path id="Vector" d="M42.43 17.56C42.03 17.16 41.37 17.16 40.97 17.56L39.61 18.92C39.2 19.32 39.2 19.98 39.61 20.38C39.81 20.58 40.08 20.68 40.34 20.68C40.6 20.68 40.87 20.58 41.07 20.38L42.43 19.02C42.83 18.62 42.83 17.96 42.43 17.56Z" />
		<path id="Vector" d="M42.43 40.97L41.07 39.61C40.67 39.2 40.01 39.2 39.61 39.61C39.2 40.01 39.2 40.67 39.61 41.07L40.97 42.43C41.17 42.63 41.43 42.73 41.7 42.73C41.96 42.73 42.23 42.63 42.43 42.43C42.83 42.03 42.83 41.37 42.43 40.97Z" />
		<path id="Vector" d="M20.38 18.92L19.02 17.56C18.62 17.16 17.96 17.16 17.56 17.56C17.16 17.96 17.16 18.62 17.56 19.02L18.92 20.38C19.12 20.58 19.39 20.68 19.65 20.68C19.91 20.68 20.18 20.58 20.38 20.38C20.79 19.98 20.79 19.32 20.38 18.92Z" />
	</g>
</svg>
