<svg width="60.000000" height="60.000000" viewBox="0 0 60 60" xmlns="http://www.w3.org/2000/svg" xmlns:xlink="http://www.w3.org/1999/xlink">
		<path id="Vector" d="M33 41L27 41C26.44 41 26 41.44 26 42C26 42.55 26.44 42.99 27 42.99L33 42.99C33.55 42.99 34 42.55 34 42C34 41.44 33.55 41 33 41Z" />
		<path id="Vector" d="M55.99 1L4 1C1.79 1 0 2.79 0 5L0 42.99C0 45.2 1.79 46.99 4 46.99L23.97 46.99C23.74 50.98 22.07 53 19 53L17 53C15.34 53 14 54.34 14 56C14 57.65 15.34 59 17 59L43 59C44.65 59 46 57.65 46 56C46 54.34 44.65 53 43 53L41 53C37.92 53 36.25 50.98 36.02 46.99L55.99 46.99C58.2 46.99 60 45.2 60 42.99L60 38L60 5C60 2.79 58.2 1 55.99 1ZM36.12 53C34.89 51.63 34.17 49.6 34.02 47L25.97 47C25.82 49.6 25.1 51.63 23.87 53L36.12 53ZM56 36.99L58 36.99L58 5C58 3.89 57.1 3 55.99 3L4 3C2.89 3 2 3.89 2 5L2 36.99L4 36.99L4 6C4 5.44 4.44 5 5 5L55 5C55.55 5 56 5.44 56 6L56 36.99ZM54 37L54 6.99L6 6.99L6 37L54 37ZM4.99 39L5 39L55 39L55 39L58 39L58 42.99C58 44.1 57.1 45 55.99 45L4 45C2.89 45 2 44.1 2 42.99L2 39L4.99 39ZM43 57L17 57C16.44 57 16 56.55 16 56C16 55.44 16.44 55 17 55L43 55C43.55 55 44 55.44 44 56C44 56.55 43.55 57 43 57Z"  fill-rule="evenodd"/>
		<path id="Vector" d="M47.78 30.46L45.37 28.05L46.71 26.7C46.96 26.45 47.06 26.09 46.97 25.75C46.88 25.41 46.63 25.14 46.29 25.04L36.29 22.04C35.94 21.93 35.56 22.03 35.3 22.29C35.03 22.55 34.94 22.93 35.04 23.28L38.04 33.28C38.14 33.62 38.42 33.88 38.76 33.97C39.1 34.05 39.46 33.95 39.71 33.7L41.12 32.29L43.54 34.7C43.72 34.89 43.98 34.99 44.24 34.99C44.51 34.99 44.76 34.89 44.95 34.7L47.78 31.87C48.17 31.48 48.17 30.85 47.78 30.46ZM44.24 32.58L42.05 30.38C41.79 30.13 41.46 30 41.12 30C40.79 30 40.45 30.13 40.2 30.38L39.48 31.1L37.49 24.49L44.11 26.47L43.34 27.25C43.12 27.46 43.01 27.74 43.01 28.05C43.01 28.35 43.12 28.63 43.34 28.85L45.66 31.17L44.24 32.58Z" />
		<path id="Vector" d="M42 9L14 9C13.44 9 13 9.44 13 9.99L13 28.99C13 29.55 13.44 29.99 14 29.99L37.8 29.99C38.12 29.99 38.41 29.85 38.6 29.59C38.79 29.34 38.85 29.01 38.76 28.71L37.49 24.49L41.71 25.75C42.01 25.84 42.34 25.78 42.59 25.6C42.85 25.41 43 25.11 43 24.79L43 9.99C43 9.44 42.55 9 42 9ZM41 14L41 11L15 11L15 14L41 14ZM15 16L41 16L41 23.45L36.29 22.04C35.93 21.93 35.55 22.03 35.29 22.29C35.03 22.55 34.94 22.93 35.04 23.28L36.46 28L15 28L15 16ZM26 20L18 20C17.44 20 17 20.44 17 21L17 25C17 25.55 17.44 26 18 26L26 26C26.55 26 27 25.55 27 25L27 21C27 20.44 26.55 20 26 20ZM25 24L19 24L19 22L25 22L25 24Z" />
</svg>
