<svg width="60.000000" height="60.000000" viewBox="0 0 60 60"  xmlns="http://www.w3.org/2000/svg" xmlns:xlink="http://www.w3.org/1999/xlink">
		<path id="Vector" d="M19.06 23.39C18.9 23.07 18.59 22.87 18.23 22.84L9.82 22.28C9.39 22.24 8.98 22.51 8.82 22.92L2.76 38.41C2.6 38.83 2.73 39.3 3.09 39.57C3.26 39.71 3.48 39.78 3.69 39.78C3.9 39.78 4.11 39.71 4.29 39.58L9.32 35.8L12.26 36.39C12.73 36.48 13.21 36.22 13.39 35.77C14.96 31.64 16.85 27.81 19.01 24.37C19.2 24.07 19.22 23.7 19.06 23.39ZM11.82 34.26L9.28 33.75C9 33.7 8.71 33.77 8.48 33.94L5.9 35.87L10.42 24.33L16.46 24.73C14.72 27.67 13.16 30.87 11.82 34.26Z" />
		<path id="Vector" d="M37.71 50.17L37.15 41.76C37.12 41.4 36.92 41.09 36.6 40.93C36.29 40.77 35.92 40.79 35.62 40.97C32.18 43.14 28.35 45.03 24.22 46.6C23.77 46.78 23.5 47.26 23.6 47.73L24.19 50.66L20.41 55.7C20.14 56.06 20.14 56.55 20.42 56.9C20.61 57.16 20.91 57.3 21.21 57.3C21.33 57.3 21.46 57.28 21.58 57.23L37.08 51.17C37.48 51.01 37.74 50.6 37.71 50.17ZM24.12 54.09L26.05 51.51C26.22 51.28 26.29 50.99 26.23 50.71L25.73 48.17C29.12 46.83 32.32 45.27 35.26 43.53L35.66 49.57L24.12 54.09Z"/>
		<path id="Vector" d="M28.99 30L22.26 30C21.89 30 21.56 30.19 21.38 30.51L12.92 45.7C12.71 46.1 12.78 46.6 13.1 46.91C13.3 47.09 13.55 47.19 13.8 47.19C13.98 47.19 14.16 47.14 14.32 47.05L29.51 37.85C29.81 37.67 29.99 37.35 29.99 37L29.99 31C29.99 30.44 29.54 30 28.99 30ZM27.99 36.43L16.5 43.38L22.84 32L22.84 32L27.99 32L27.99 36.43Z" />
		<path id="Vector" d="M59.94 0.96C59.9 0.47 59.52 0.09 59.03 0.04C58.7 0.02 25.77 -2.28 11.52 35.05C11.38 35.42 11.47 35.84 11.74 36.12L16.5 40.87C16.72 41.09 17.03 41.19 17.35 41.15C17.66 41.11 17.93 40.92 18.08 40.64L22.85 32L27.99 32L27.99 36.44L19.29 41.94C19.03 42.1 18.87 42.37 18.83 42.67C18.8 42.97 18.9 43.28 19.12 43.49L23.87 48.25C24.06 48.44 24.32 48.54 24.58 48.54C24.7 48.54 24.82 48.52 24.94 48.47C62.27 34.22 59.97 1.29 59.94 0.96ZM54.7 18.7C51.19 27.38 43.16 39.18 24.83 46.37L21.42 42.96L29.53 37.84C29.82 37.66 29.99 37.34 29.99 37L29.99 31C29.99 30.44 29.54 30 28.99 30L22.25 30C21.89 30 21.55 30.2 21.38 30.51L16.97 38.52L13.62 35.16C26.13 3.24 52.8 1.94 57.98 2.01C58.02 4.34 57.81 11.01 54.7 18.7Z" />
		<path id="Vector" d="M17.12 44.16C16.91 43.87 16.56 43.73 16.22 43.77C16.26 43.43 16.12 43.08 15.83 42.87C14.32 41.73 12.38 41.35 10.49 41.82C8.49 42.33 6.85 43.7 6 45.57L0.09 58.58C-0.09 58.96 -0.01 59.41 0.29 59.7C0.48 59.89 0.73 59.99 1 59.99C1.13 59.99 1.28 59.96 1.41 59.9L14.41 53.99C16.29 53.14 17.65 51.5 18.16 49.5C18.64 47.62 18.26 45.67 17.12 44.16ZM16.23 49.01C15.87 50.42 14.91 51.57 13.59 52.17L3.01 56.98L7.82 46.4C8.42 45.08 9.57 44.12 10.98 43.76C11.35 43.67 11.73 43.62 12.09 43.62C12.72 43.62 13.32 43.76 13.88 44.01L12.93 45.7C12.71 46.09 12.77 46.58 13.09 46.9C13.41 47.22 13.9 47.28 14.29 47.06L15.98 46.11C16.39 46.99 16.48 48.01 16.23 49.01Z"/>
		<path id="Vector" d="M59.94 0.96C59.9 0.47 59.52 0.09 59.03 0.05C58.64 0.01 49.37 -0.69 38.47 4.33C38.17 4.47 37.96 4.74 37.9 5.07C37.85 5.39 37.95 5.72 38.18 5.95L54.04 21.81C54.23 22 54.48 22.1 54.75 22.1C54.81 22.1 54.86 22.1 54.92 22.09C55.25 22.03 55.52 21.82 55.66 21.52C60.68 10.62 59.98 1.35 59.94 0.96ZM54.42 19.36L40.63 5.57C48.61 2.2 55.6 1.97 57.99 2.01C58.03 4.4 57.8 11.36 54.42 19.36Z" />
		<path id="Vector" d="M44.16 15.83C40.79 12.47 35.32 12.47 31.96 15.83C28.6 19.2 28.6 24.67 31.96 28.03C33.64 29.71 35.85 30.55 38.06 30.55C40.27 30.55 42.47 29.71 44.16 28.03C47.52 24.67 47.52 19.2 44.16 15.83ZM42.74 26.62C40.16 29.2 35.96 29.2 33.37 26.62C30.79 24.03 30.79 19.83 33.37 17.25C34.66 15.96 36.36 15.31 38.06 15.31C39.75 15.31 41.45 15.96 42.74 17.25C45.32 19.83 45.32 24.03 42.74 26.62Z" />
		<path id="Vector" d="M40.05 23.92C38.95 25.02 37.17 25.02 36.07 23.92C34.97 22.82 34.97 21.04 36.07 19.94C37.16 18.85 38.95 18.85 40.05 19.94C40.43 20.33 41.07 20.33 41.46 19.94C41.85 19.55 41.85 18.92 41.46 18.53C39.58 16.65 36.53 16.65 34.65 18.53C32.78 20.41 32.78 23.46 34.65 25.33C35.59 26.27 36.83 26.74 38.06 26.74C39.29 26.74 40.52 26.27 41.46 25.33C41.85 24.94 41.85 24.31 41.46 23.92C41.07 23.53 40.43 23.53 40.05 23.92Z"/>
</svg>
