<svg width="660.000000" height="660.000000" viewBox="0 0 660 660" fill="none" xmlns="http://www.w3.org/2000/svg" xmlns:xlink="http://www.w3.org/1999/xlink">
	<g opacity="0.070000">
		<path id="Subtract" d="M330 0C443.11 0 542.92 56.9 602.38 143.65L371.25 374.78L235.41 238.95C219.3 222.84 193.19 222.84 177.08 238.95L9.03 407C3.12 382.3 0 356.51 0 330C0 147.74 147.74 0 330 0ZM400.41 462.29L641.6 221.1C653.52 255.19 660 291.84 660 330C660 512.25 512.25 660 330 660C206.16 660 98.26 591.79 41.81 490.89L206.25 326.46L342.08 462.29C358.19 478.4 384.3 478.4 400.41 462.29Z" fill="#8794BA" fill-opacity="1.000000" fill-rule="evenodd"/>
	</g>
</svg>
