<svg width="219.537109" height="56.000000" viewBox="0 0 219.537 56" fill="none" xmlns="http://www.w3.org/2000/svg" xmlns:xlink="http://www.w3.org/1999/xlink">
	<desc>
			Created with Pixso.
	</desc>
	<defs>
		<clipPath id="clip5_215">
			<rect id="Icon" rx="0.000000" width="35.000000" height="35.000000" transform="translate(0.500000 10.500000)" fill="white" fill-opacity="0"/>
		</clipPath>
		<clipPath id="clip330_1193">
			<rect id="Frame 9" rx="0.000000" width="218.536804" height="55.000000" transform="translate(0.500000 0.500000)" fill="white" fill-opacity="0"/>
		</clipPath>
	</defs>
	<g clip-path="url(#clip330_1193)">
		<g clip-path="url(#clip5_215)">
			<path id="Vector" d="M17.99 15.53L35.59 10.34L30.46 28L35.59 45.6L17.99 40.46L0.34 45.6L5.53 28L0.34 10.34L17.99 15.53Z" fill="#000000" fill-opacity="1.000000" fill-rule="nonzero"/>
		</g>
		<path id="Positivus" d="M48.91 41L48.91 13L60.03 13Q62.59 13 64.59 14.04Q65.85 14.65 66.76 15.6Q67.32 16.19 67.75 16.91Q68.91 18.75 68.91 21.35L68.91 21.87Q68.91 24.36 67.82 26.19Q67.77 26.27 67.72 26.35Q67.18 27.22 66.47 27.9Q65.64 28.69 64.56 29.24Q62.56 30.24 60.03 30.24L53.24 30.24L53.24 41L48.91 41ZM120.29 18.6Q119.56 18.6 118.96 18.31L118.96 18.31Q118.58 18.13 118.26 17.83C117.72 17.3 117.45 16.62 117.45 15.79C117.45 14.97 117.72 14.3 118.26 13.79Q118.62 13.44 119.06 13.25L119.06 13.25Q119.62 13 120.29 13Q121.11 13 121.73 13.34Q122.06 13.52 122.34 13.79C122.87 14.3 123.13 14.97 123.13 15.79C123.13 16.62 122.87 17.3 122.34 17.83Q122.1 18.06 121.83 18.21L121.83 18.21Q121.17 18.6 120.29 18.6ZM148.85 18.6Q148.12 18.6 147.52 18.31L147.52 18.31Q147.14 18.13 146.81 17.83C146.28 17.3 146.01 16.62 146.01 15.79C146.01 14.97 146.28 14.3 146.81 13.79Q147.18 13.44 147.62 13.25L147.62 13.25Q148.18 13 148.85 13C149.68 13 150.36 13.26 150.89 13.79C151.42 14.3 151.69 14.97 151.69 15.79C151.69 16.62 151.42 17.3 150.89 17.83C150.36 18.34 149.68 18.6 148.85 18.6ZM135.85 41C134.65 41 133.69 40.64 132.97 39.91C132.28 39.2 131.93 38.24 131.93 37.04L131.93 24.75L126.49 24.75L126.49 21.27L131.93 21.27L131.93 14.75L136.05 14.75L136.05 21.27L141.93 21.27L141.93 24.75L136.05 24.75L136.05 36.31C136.05 37.12 136.42 37.52 137.17 37.52L141.29 37.52L141.29 41L135.85 41ZM53.24 26.31L59.59 26.31Q61.69 26.31 63 25.31L63 25.31Q63.12 25.21 63.24 25.12Q63.65 24.75 63.93 24.31Q64.59 23.29 64.59 21.83L64.59 21.43Q64.59 19.9 63.88 18.85L63.88 18.85Q63.61 18.45 63.24 18.12Q63.12 18.02 63 17.93L63 17.93Q61.69 16.91 59.59 16.91L53.24 16.91L53.24 26.31ZM81.83 41.56C79.86 41.56 78.1 41.16 76.55 40.35C75.03 39.53 73.83 38.35 72.95 36.83C72.07 35.31 71.63 33.52 71.63 31.43L71.63 30.83C71.63 28.75 72.07 26.97 72.95 25.48Q73.68 24.22 74.7 23.28L74.7 23.28Q75.53 22.51 76.55 21.96C78.1 21.13 79.86 20.72 81.83 20.72C83.8 20.72 85.56 21.13 87.11 21.96Q88.26 22.57 89.16 23.44Q90.08 24.32 90.75 25.48C91.63 26.97 92.07 28.75 92.07 30.83L92.07 31.43C92.07 33.52 91.63 35.31 90.75 36.83Q90.08 37.99 89.16 38.87Q88.26 39.74 87.11 40.35C85.56 41.16 83.8 41.56 81.83 41.56ZM105.28 41.56C102.77 41.56 100.69 41 99.04 39.87C97.39 38.75 96.37 37.06 96 34.79L99.84 33.87C100.05 34.97 100.41 35.83 100.92 36.48C101.43 37.12 102.05 37.57 102.8 37.83C103.57 38.1 104.4 38.24 105.28 38.24C106.59 38.24 107.59 37.98 108.28 37.48C109 36.97 109.36 36.31 109.36 35.52C109.36 34.72 109.03 34.13 108.36 33.75C107.69 33.38 106.71 33.08 105.4 32.83L104.04 32.6C102.71 32.35 101.49 32.01 100.4 31.56C99.31 31.1 98.44 30.48 97.8 29.68Q97.73 29.58 97.66 29.49Q96.84 28.33 96.84 26.6C96.84 24.73 97.53 23.29 98.92 22.27Q101 20.72 104.44 20.72Q107.76 20.72 109.88 22.24Q110.93 22.95 111.62 23.92Q112.35 24.96 112.68 26.27L108.84 27.35C108.6 26.16 108.09 25.31 107.32 24.83Q106.16 24.08 104.44 24.08C103.32 24.08 102.44 24.29 101.8 24.72C101.16 25.12 100.84 25.69 100.84 26.43C100.84 27.24 101.15 27.82 101.76 28.2C102.4 28.57 103.25 28.85 104.32 29.04L105.72 29.27C107.13 29.52 108.43 29.85 109.6 30.27C110.77 30.7 111.69 31.31 112.36 32.12C113.05 32.91 113.4 33.98 113.4 35.31C113.4 37.29 112.67 38.82 111.2 39.91C109.73 41.01 107.76 41.56 105.28 41.56ZM211.41 41.56C208.91 41.56 206.83 41 205.17 39.87Q204.47 39.4 203.93 38.79Q202.53 37.24 202.13 34.79L205.97 33.87C206.18 34.97 206.55 35.83 207.05 36.48C207.56 37.12 208.18 37.57 208.93 37.83C209.71 38.1 210.53 38.24 211.41 38.24C212.72 38.24 213.72 37.98 214.41 37.48Q215.07 37.01 215.33 36.38Q215.49 35.98 215.49 35.52C215.49 34.72 215.16 34.13 214.49 33.75C213.83 33.38 212.84 33.08 211.53 32.83L210.17 32.6C208.84 32.35 207.63 32.01 206.53 31.56C205.44 31.1 204.57 30.48 203.93 29.68C203.29 28.87 202.97 27.85 202.97 26.6C202.97 24.73 203.67 23.29 205.05 22.27C206.44 21.24 208.28 20.72 210.57 20.72C212.79 20.72 214.6 21.22 216.01 22.24Q217.06 22.95 217.75 23.92Q218.48 24.96 218.81 26.27L214.97 27.35C214.73 26.16 214.23 25.31 213.45 24.83C212.68 24.33 211.72 24.08 210.57 24.08C209.45 24.08 208.57 24.29 207.93 24.72C207.29 25.12 206.97 25.69 206.97 26.43C206.97 27.24 207.28 27.82 207.89 28.2C208.53 28.57 209.39 28.85 210.45 29.04L211.85 29.27C213.27 29.52 214.56 29.85 215.73 30.27C216.91 30.7 217.83 31.31 218.49 32.12C219.18 32.91 219.53 33.98 219.53 35.31C219.53 37.29 218.8 38.82 217.33 39.91C215.87 41.01 213.89 41.56 211.41 41.56ZM118.21 41L118.21 21.27L122.34 21.27L122.34 41L118.21 41ZM146.77 41L146.77 21.27L150.89 21.27L150.89 41L146.77 41ZM161.56 41L154.92 21.27L159.28 21.27L164.52 37.96L165.16 37.96L170.4 21.27L174.77 21.27L168.12 41L161.56 41ZM186.32 41.35C184.83 41.35 183.5 41.02 182.32 40.35C181.15 39.69 180.23 38.74 179.56 37.52C178.9 36.29 178.56 34.82 178.56 33.12L178.56 21.27L182.68 21.27L182.68 32.83Q182.68 35.39 183.96 36.63L183.96 36.64C184.82 37.43 186 37.83 187.52 37.83Q189.18 37.83 190.41 37.1L190.41 37.1Q191.04 36.73 191.56 36.16C192.6 35.01 193.12 33.37 193.12 31.24L193.12 21.27L197.24 21.27L197.24 41L193.2 41L193.2 38.04L192.56 38.04C192.19 38.83 191.52 39.6 190.56 40.31C189.6 41.01 188.19 41.35 186.32 41.35ZM81.83 37.87Q83.73 37.87 85.13 37.03Q85.73 36.67 86.23 36.16Q86.46 35.92 86.66 35.66Q87.95 33.98 87.95 31.31L87.95 30.96C87.95 28.9 87.39 27.3 86.27 26.16C85.15 24.98 83.67 24.39 81.83 24.39C80.04 24.39 78.58 24.98 77.43 26.16Q77.26 26.33 77.1 26.53Q75.75 28.19 75.75 30.96L75.75 31.31Q75.75 34.06 77.08 35.75L77.08 35.75Q77.25 35.96 77.43 36.16C78.58 37.3 80.04 37.87 81.83 37.87Z" fill="#000000" fill-opacity="1.000000" fill-rule="evenodd"/>
	</g>
</svg>
