<svg width="21.339142" height="20.000000" viewBox="0 0 21.3391 20"  xmlns="http://www.w3.org/2000/svg" xmlns:xlink="http://www.w3.org/1999/xlink">
		<path d="M16 0L13.23 0C10.12 0 8.11 1.93 8.11 4.92L8.11 7.19L5.33 7.19C5.09 7.19 4.9 7.37 4.9 7.59L4.9 10.88C4.9 11.11 5.09 11.29 5.33 11.29L8.11 11.29L8.11 19.59C8.11 19.81 8.31 20 8.55 20L12.18 20C12.42 20 12.61 19.81 12.61 19.59L12.61 11.29L15.87 11.29C16.11 11.29 16.3 11.11 16.3 10.88L16.3 7.59C16.3 7.49 16.26 7.38 16.18 7.31C16.09 7.23 15.98 7.19 15.87 7.19L12.61 7.19L12.61 5.26C12.61 4.34 12.85 3.87 14.13 3.87L16 3.87C16.24 3.87 16.43 3.69 16.43 3.46L16.43 0.41C16.43 0.18 16.24 0 16 0Z"/>
</svg>
