<svg width="21.338928" height="20.000000" viewBox="0 0 21.3389 20" xmlns="http://www.w3.org/2000/svg" xmlns:xlink="http://www.w3.org/1999/xlink">
		<path d="M14.67 0L6.66 0C2.98 0 0 2.79 0 6.25L0 13.75C0 17.2 2.98 20 6.66 20L14.67 20C18.35 20 21.33 17.2 21.33 13.75L21.33 6.25C21.33 2.79 18.35 0 14.67 0ZM19.33 13.75C19.33 16.16 17.24 18.12 14.67 18.12L6.66 18.12C4.09 18.12 2 16.16 2 13.75L2 6.25C2 3.83 4.09 1.87 6.66 1.87L14.67 1.87C17.24 1.87 19.33 3.83 19.33 6.25L19.33 13.75Z"/>
		<path d="M10.66 5C7.72 5 5.33 7.23 5.33 10C5.33 12.76 7.72 15 10.66 15C13.61 15 16 12.76 16 10C16 7.23 13.61 5 10.66 5ZM10.66 13.12C8.83 13.12 7.33 11.72 7.33 10C7.33 8.27 8.83 6.87 10.66 6.87C12.5 6.87 14 8.27 14 10C14 11.72 12.5 13.12 10.66 13.12Z"/>
		<path d="M17.11 4.62C17.11 4.99 16.79 5.29 16.4 5.29C16.01 5.29 15.69 4.99 15.69 4.62C15.69 4.25 16.01 3.95 16.4 3.95C16.79 3.95 17.11 4.25 17.11 4.62Z"/>
</svg>
