<svg width="20.000000" height="20.000000" viewBox="0 0 20 20" xmlns="http://www.w3.org/2000/svg" xmlns:xlink="http://www.w3.org/1999/xlink">
	<path id="Instagram" d="M10 1.83C12.66 1.83 13 1.83 14.08 1.91C16.83 2 18.08 3.33 18.16 6C18.25 7.08 18.25 7.33 18.25 10C18.25 12.66 18.25 13 18.16 14C18.08 16.66 16.75 18 14.08 18.08C13 18.16 12.75 18.16 10 18.16C7.33 18.16 7 18.16 6 18.08C3.25 18 2 16.66 1.91 14C1.83 12.91 1.83 12.66 1.83 10C1.83 7.33 1.83 7 1.91 6C2 3.33 3.33 2 6 1.91C7 1.83 7.33 1.83 10 1.83ZM10 0C7.25 0 6.91 0 5.91 0.08C2.25 0.25 0.25 2.25 0.08 5.91C0 6.91 0 7.25 0 10C0 12.75 0 13.08 0.08 14.08C0.25 17.75 2.25 19.75 5.91 19.91C6.91 20 7.25 20 10 20C12.75 20 13.08 20 14.08 19.91C17.75 19.75 19.75 17.75 19.91 14.08C20 13.08 20 12.75 20 10C20 7.25 20 6.91 19.91 5.91C19.75 2.25 17.75 0.25 14.08 0.08C13.08 0 12.75 0 10 0ZM10 4.83C7.16 4.83 4.83 7.16 4.83 10C4.83 12.83 7.16 15.16 10 15.16C12.83 15.16 15.16 12.83 15.16 10C15.16 7.16 12.83 4.83 10 4.83ZM10 13.33C8.16 13.33 6.66 11.83 6.66 10C6.66 8.16 8.16 6.66 10 6.66C11.83 6.66 13.33 8.16 13.33 10C13.33 11.83 11.83 13.33 10 13.33ZM15.33 3.5C14.66 3.5 14.16 4 14.16 4.66C14.16 5.33 14.66 5.83 15.33 5.83C16 5.83 16.5 5.33 16.5 4.66C16.5 4 16 3.5 15.33 3.5Z" />
</svg>
