<svg width="24.608643" height="20.000000" viewBox="0 0 24.6086 20" xmlns="http://www.w3.org/2000/svg" xmlns:xlink="http://www.w3.org/1999/xlink">
	<path id="Twitter" d="M7.73 20C17.02 20 22.1 12.3 22.1 5.63C22.1 5.41 22.1 5.19 22.08 4.98C23.07 4.26 23.93 3.37 24.6 2.36C23.7 2.76 22.73 3.04 21.7 3.16C22.75 2.53 23.55 1.54 23.92 0.36C22.95 0.94 21.87 1.36 20.72 1.59C19.8 0.61 18.49 0 17.03 0C14.24 0 11.98 2.26 11.98 5.04C11.98 5.44 12.03 5.82 12.11 6.19C7.92 5.98 4.2 3.97 1.71 0.92C1.27 1.67 1.02 2.53 1.02 3.46C1.02 5.21 1.91 6.76 3.27 7.66C2.44 7.63 1.66 7.41 0.98 7.03C0.98 7.05 0.98 7.07 0.98 7.09C0.98 9.54 2.72 11.58 5.03 12.04C4.61 12.16 4.16 12.22 3.7 12.22C3.38 12.22 3.06 12.19 2.75 12.13C3.4 14.13 5.26 15.59 7.47 15.64C5.74 16.99 3.56 17.8 1.2 17.8C0.79 17.8 0.39 17.77 0 17.73C2.23 19.16 4.88 20 7.73 20Z" />
</svg>
